Coordinates
version=1
nRows=21
nColumns=12
inDegrees=yes

Units are S.I. units (second, meters, Newtons, ...)
Angles are in degrees

endheader
time	SC_y	SC_z	SC_x	AC_y	AC_z	AC_x	GH_y	GH_z	GH_yy	EL_x	PS_y
       0.0              -32.92           1.21          36.66          67.66          8.657         -13.99         -68.36          86.56          7.014          99.99           92.9
   0.03416              -32.92          1.214          36.65          67.66          8.655         -13.98         -68.34          86.54          7.028          99.98          92.91
   0.06832              -32.91          1.219          36.65          67.66          8.653         -13.98         -68.32          86.53          7.043          99.97          92.91
    0.1025              -32.91          1.224          36.64          67.65           8.65         -13.98          -68.3          86.51           7.06          99.96          92.92
    0.1366              -32.91          1.229          36.64          67.65          8.648         -13.97         -68.27          86.49          7.077          99.95          92.92
    0.1708              -32.91          1.235          36.63          67.65          8.645         -13.97         -68.24          86.47          7.095          99.94          92.93
     0.205               -32.9          1.241          36.63          67.65          8.642         -13.97         -68.22          86.45          7.115          99.93          92.94
    0.2391               -32.9          1.247          36.62          67.65          8.639         -13.96         -68.18          86.43          7.136          99.92          92.94
    0.2733               -32.9          1.254          36.62          67.64          8.635         -13.96         -68.15           86.4          7.158           99.9          92.95
    0.3074              -32.89          1.261          36.61          67.64          8.631         -13.95         -68.12          86.38          7.182          99.89          92.96
    0.3416              -32.89          1.269           36.6          67.64          8.627         -13.95         -68.08          86.35          7.208          99.87          92.97
    0.3758              -32.89          1.277          36.59          67.63          8.623         -13.94         -68.04          86.32          7.236          99.86          92.98
    0.4099              -32.88          1.286          36.59          67.63          8.618         -13.93         -67.99          86.29          7.266          99.84          92.99
    0.4441              -32.88          1.296          36.58          67.63          8.613         -13.93         -67.94          86.25          7.298          99.82           93.0
    0.4783              -32.87          1.307          36.57          67.62          8.608         -13.92         -67.89          86.21          7.334           99.8          93.01
    0.5124              -32.87          1.319          36.56          67.62          8.602         -13.91         -67.84          86.17          7.372          99.78          93.02
    0.5466              -32.86          1.331          36.54          67.61          8.596          -13.9         -67.78          86.13          7.413          99.75          93.03
    0.5807              -32.86          1.345          36.53          67.61          8.589         -13.89         -67.71          86.08          7.458          99.72          93.05
    0.6149              -32.85           1.36          36.52           67.6          8.581         -13.88         -67.64          86.03          7.507           99.7          93.07
    0.6491              -32.84          1.376           36.5           67.6          8.573         -13.87         -67.56          85.97          7.561          99.66          93.08
    0.6832              -32.84          1.394          36.48          67.59          8.564         -13.86         -67.47          85.91           7.62          99.63           93.1
